<svg width="18" height="18" viewBox="0 0 18 18" fill="none" xmlns="http://www.w3.org/2000/svg">
<path d="M11.2661 3.21242C11.0337 3.07379 10.7681 3.00061 10.4975 3.00061H7.5025C7.23217 3.0006 6.96685 3.07362 6.73461 3.21196C6.50236 3.35031 6.31183 3.54883 6.18315 3.78653L5.81637 4.46446C5.68769 4.70217 5.49715 4.90069 5.26491 5.03903C5.03267 5.17737 4.76735 5.2504 4.49701 5.25039H2.99914C2.60129 5.25039 2.21973 5.4084 1.9384 5.68968C1.65707 5.97096 1.49902 6.35245 1.49902 6.75024V13.4996C1.49902 13.8973 1.65707 14.2788 1.9384 14.5601C2.21973 14.8414 2.60129 14.9994 2.99914 14.9994H15.0001C15.398 14.9994 15.7795 14.8414 16.0608 14.5601C16.3422 14.2788 16.5002 13.8973 16.5002 13.4996V6.75024C16.5002 6.35245 16.3422 5.97096 16.0608 5.68968C15.7795 5.4084 15.398 5.25039 15.0001 5.25039H13.5022C13.2316 5.25039 12.966 5.1772 12.7336 5.03858C12.5012 4.89996 12.3107 4.70106 12.1821 4.46296L11.8176 3.78803C11.6891 3.54994 11.4985 3.35104 11.2661 3.21242Z" stroke="white" stroke-width="2" stroke-linecap="round"/>
</svg>
